<svg width="562" height="300" viewBox="0 0 562 300" fill="none" xmlns="http://www.w3.org/2000/svg">
<path d="M83.8207 266.84C57.6407 266.84 38.2507 259.42 25.6507 244.58C21.1707 239.26 17.5307 232.19 14.7307 223.37C11.9307 214.55 10.5307 203.84 10.5307 191.24C10.5307 178.64 12.5607 167.37 16.6207 157.43C20.8207 147.35 26.4907 139.58 33.6307 134.12C47.4907 123.9 64.2207 118.79 83.8207 118.79C90.1207 118.79 96.2807 119.28 102.301 120.26C108.321 121.1 112.801 122.01 115.741 122.99L120.151 124.46L119.521 126.56C108.601 122.78 96.7007 120.89 83.8207 120.89C68.9807 120.89 56.5907 125.72 46.6507 135.38C39.0907 142.52 33.7707 153.02 30.6907 166.88C28.8707 174.72 27.9607 184.31 27.9607 195.65C27.9607 206.99 29.5707 217.49 32.7907 227.15C36.0107 236.67 39.6507 243.74 43.7107 248.36C47.9107 252.98 52.9507 256.69 58.8307 259.49C64.7107 262.15 69.4007 263.69 72.9007 264.11C76.4007 264.53 80.5307 264.74 85.2907 264.74C90.1907 264.74 96.7007 264.18 104.821 263.06V219.8H79.4107V217.7H131.281V219.8H122.251V261.17C111.611 264.95 98.8007 266.84 83.8207 266.84ZM159.977 266C154.237 266 149.827 264.74 146.747 262.22C143.807 259.7 142.267 257.18 142.127 254.66L141.917 251.09V161H156.617V251.09C156.617 255.15 157.387 258.3 158.927 260.54C160.607 262.64 162.217 263.76 163.757 263.9L166.277 264.32H172.787V266H159.977ZM143.177 137.48C141.497 135.8 140.657 133.7 140.657 131.18C140.657 128.66 141.497 126.56 143.177 124.88C144.857 123.06 146.957 122.15 149.477 122.15C151.997 122.15 154.097 123.06 155.777 124.88C157.597 126.56 158.507 128.66 158.507 131.18C158.507 133.7 157.597 135.8 155.777 137.48C154.097 139.16 151.997 140 149.477 140C146.957 140 144.857 139.16 143.177 137.48ZM189.621 162.68V161H262.491V162.68L199.071 264.32H249.261C258.921 264.32 264.731 261.52 266.691 255.92L267.951 256.55C267.951 257.11 267.461 258.09 266.481 259.49C265.501 260.75 264.381 261.8 263.121 262.64C259.761 264.88 255.141 266 249.261 266H184.371V264.32L247.791 162.68H189.621ZM289.632 214.76C289.632 232.12 292.642 244.86 298.662 252.98C304.822 261.1 312.872 265.16 322.812 265.16C336.812 265.16 349.272 263.06 360.192 258.86L360.822 260.33C349.622 264.67 336.952 266.84 322.812 266.84C308.812 266.84 297.402 262.64 288.582 254.24C279.762 245.84 275.352 232.89 275.352 215.39C275.352 197.89 279.972 184.31 289.212 174.65C298.452 164.99 310.212 160.16 324.492 160.16C335.972 160.16 345.632 163.59 353.472 170.45C361.312 177.31 365.232 187.46 365.232 200.9C365.232 201.6 365.232 202.3 365.232 203H290.262C289.842 206.78 289.632 210.7 289.632 214.76ZM350.952 201.32C350.812 187.88 348.222 177.94 343.182 171.5C338.142 165.06 331.632 161.84 323.652 161.84C315.672 161.84 308.532 165.34 302.232 172.34C296.072 179.34 292.152 189 290.472 201.32H350.952ZM402.617 266C390.297 266 382.527 262.78 379.307 256.34C378.607 254.94 378.257 253.68 378.257 252.56V108.71H392.957V251.09C392.957 255.15 393.727 258.3 395.267 260.54C396.947 262.64 398.627 263.76 400.307 263.9L402.617 264.32H409.127V266H402.617ZM447.431 266C435.111 266 427.341 262.78 424.121 256.34C423.421 254.94 423.071 253.68 423.071 252.56V108.71H437.771V251.09C437.771 255.15 438.541 258.3 440.081 260.54C441.761 262.64 443.441 263.76 445.121 263.9L447.431 264.32H453.941V266H447.431ZM548.203 266C538.683 266 532.173 264.18 528.673 260.54C525.453 257.46 523.843 254.8 523.843 252.56V248.15C516.983 260.61 505.993 266.84 490.873 266.84C473.233 266.84 463.223 258.86 460.843 242.9C460.563 241.22 460.423 239.54 460.423 237.86C460.423 236.04 460.703 234.08 461.263 231.98C461.823 229.88 463.433 227.57 466.093 225.05C471.413 220.01 483.103 216.93 501.163 215.81C505.643 215.39 509.773 215.18 513.553 215.18C517.333 215.18 520.763 215.32 523.843 215.6V180.74C523.563 180.6 523.563 179.97 523.843 178.85C524.123 177.59 523.843 176.05 523.003 174.23C522.303 172.27 521.323 170.38 520.063 168.56C518.803 166.74 516.563 165.2 513.343 163.94C510.123 162.54 505.923 161.84 500.743 161.84C495.563 161.84 489.473 162.82 482.473 164.78C475.613 166.6 470.573 168.42 467.353 170.24L466.513 168.77C478.973 163.03 491.643 160.16 504.523 160.16C518.943 160.16 528.463 162.75 533.083 167.93C536.723 171.99 538.543 176.26 538.543 180.74V251.09C538.543 255.15 539.313 258.3 540.853 260.54C542.533 262.64 544.213 263.76 545.893 263.9L548.203 264.32H554.713V266H548.203ZM494.233 265.16C501.653 265.16 508.303 262.64 514.183 257.6C520.203 252.42 523.423 247.45 523.843 242.69V217.28C520.063 217 516.213 216.86 512.293 216.86C508.513 216.86 504.733 217.07 500.953 217.49C490.313 218.75 483.383 221.13 480.163 224.63C476.943 228.13 475.333 232.96 475.333 239.12C475.333 240.24 475.403 241.5 475.543 242.9C476.803 257.74 483.033 265.16 494.233 265.16Z" fill="black"/>
<path d="M31.547 65V11.8H68.255V15.068H35.043V36.88H56.779V40.148H35.043V65H31.547ZM97.0792 65L119.271 11.8H123.603L145.719 65H141.919L134.547 46.988H108.175L100.727 65H97.0792ZM109.467 43.872H133.255L121.399 15.068L109.467 43.872ZM211.401 65.836C207.55 65.836 203.953 65.1267 200.609 63.708C197.316 62.2893 194.428 60.3387 191.945 57.856C189.513 55.3227 187.588 52.4093 186.169 49.116C184.801 45.772 184.117 42.2 184.117 38.4C184.117 34.6 184.801 31.0533 186.169 27.76C187.588 24.416 189.513 21.5027 191.945 19.02C194.428 16.4867 197.316 14.5107 200.609 13.092C203.953 11.6733 207.55 10.964 211.401 10.964C214.036 10.964 216.569 11.268 219.001 11.876C221.484 12.484 223.814 13.396 225.993 14.612C228.172 15.828 230.148 17.348 231.921 19.172L229.641 21.832C227.462 19.4507 224.726 17.6013 221.433 16.284C218.19 14.916 214.846 14.232 211.401 14.232C208.006 14.232 204.865 14.8653 201.977 16.132C199.14 17.348 196.632 19.0707 194.453 21.3C192.325 23.4787 190.653 26.0373 189.437 28.976C188.272 31.864 187.689 35.0053 187.689 38.4C187.689 41.7947 188.272 44.9613 189.437 47.9C190.653 50.788 192.325 53.3467 194.453 55.576C196.632 57.7547 199.14 59.4773 201.977 60.744C204.865 61.96 208.006 62.568 211.401 62.568C214.846 62.568 218.19 61.884 221.433 60.516C224.726 59.148 227.462 57.2987 229.641 54.968L231.921 57.628C230.148 59.452 228.172 60.972 225.993 62.188C223.814 63.404 221.484 64.316 219.001 64.924C216.569 65.532 214.036 65.836 211.401 65.836ZM279.013 65V11.8H315.797V15.068H282.509V36.5H304.245V39.768H282.509V61.732H316.101V65H279.013ZM415.985 65V11.8H435.973C439.419 11.8 442.357 12.3573 444.789 13.472C447.221 14.536 449.071 16.056 450.337 18.032C451.604 20.008 452.237 22.3387 452.237 25.024C452.237 27.9627 451.401 30.496 449.729 32.624C448.108 34.752 445.803 36.2467 442.813 37.108C446.563 37.9187 449.451 39.464 451.477 41.744C453.555 44.024 454.593 46.8867 454.593 50.332C454.593 53.22 453.884 55.7787 452.465 58.008C451.047 60.1867 449.02 61.9093 446.385 63.176C443.751 64.392 440.559 65 436.809 65H415.985ZM419.481 35.588H435.897C439.9 35.588 443.041 34.6507 445.321 32.776C447.652 30.8507 448.817 28.368 448.817 25.328C448.817 22.288 447.652 19.8307 445.321 17.956C443.041 16.0307 439.9 15.068 435.897 15.068H419.481V35.588ZM419.481 61.732H436.505C440.964 61.732 444.485 60.668 447.069 58.54C449.704 56.412 451.021 53.6507 451.021 50.256C451.021 46.8613 449.704 44.1253 447.069 42.048C444.485 39.92 440.964 38.856 436.505 38.856H419.481V61.732ZM512.805 65V42.808L491.981 11.8H496.161L514.629 39.616L533.173 11.8H537.201L516.301 42.96V65H512.805Z" fill="black"/>
</svg>
