<svg width="134" height="44" viewBox="0 0 134 44" fill="none" xmlns="http://www.w3.org/2000/svg">
<path d="M23.2559 31.832C23.2559 33.4747 22.9679 35.0107 22.3919 36.44C21.8372 37.848 21.0585 39.064 20.0559 40.088C19.0745 41.0907 17.8905 41.8907 16.5039 42.488C15.1172 43.064 13.6239 43.352 12.0239 43.352C10.3599 43.352 8.80252 43.0533 7.35186 42.456C5.90119 41.8587 4.64252 41.048 3.57586 40.024C2.53052 38.9787 1.69852 37.752 1.07986 36.344C0.461189 34.936 0.151855 33.4213 0.151855 31.8C0.151855 30.1787 0.450522 28.664 1.04786 27.256C1.66652 25.848 2.49852 24.632 3.54386 23.608C4.61052 22.5627 5.86919 21.7413 7.31986 21.144C8.77052 20.5467 10.3172 20.248 11.9599 20.248C13.8159 20.248 15.5652 20.6213 17.2079 21.368C18.8505 22.1147 20.2052 23.1387 21.2719 24.44L18.0399 27.416C17.2505 26.4773 16.3332 25.7627 15.2879 25.272C14.2639 24.76 13.1545 24.504 11.9599 24.504C10.9572 24.504 10.0185 24.696 9.14386 25.08C8.29052 25.4427 7.54386 25.9547 6.90386 26.616C6.28519 27.256 5.79452 28.024 5.43186 28.92C5.09052 29.7947 4.91986 30.7547 4.91986 31.8C4.91986 32.8453 5.10119 33.816 5.46386 34.712C5.82652 35.608 6.32786 36.3867 6.96786 37.048C7.60786 37.688 8.36519 38.2 9.23986 38.584C10.1359 38.9467 11.0852 39.128 12.0879 39.128C13.6665 39.128 15.0212 38.6907 16.1519 37.816C17.3039 36.9414 18.0185 35.8214 18.2959 34.456H11.6719V30.424H23.2559V31.832Z" fill="white"/>
<path d="M25.7821 43V20.6H30.4221V43H25.7821Z" fill="white"/>
<path d="M32.5169 43V39.832L44.8689 24.632H32.6129V20.6H50.9169V23.768L38.5649 38.968H51.0449V43H32.5169Z" fill="white"/>
<path d="M52.9709 43V20.6H70.1869V24.632H57.6109V29.752H65.8989V33.656H57.6109V38.968H70.3149V43H52.9709Z" fill="white"/>
<path d="M72.9559 43V20.6H77.5959V38.904H89.8519V43H72.9559Z" fill="white"/>
<path d="M92.4096 43V20.6H97.0496V38.904H109.306V43H92.4096Z" fill="white"/>
<path d="M110.188 43L119.404 20.6H124.78L133.868 43H128.844L126.572 37.112H117.324L115.02 43H110.188ZM118.764 33.4H125.164L121.996 25.144L118.764 33.4Z" fill="white"/>
<path d="M19.0079 12V3.98401H20.1919V4.86402C20.4905 4.52268 20.8372 4.26668 21.2319 4.09601C21.6265 3.91468 22.0639 3.82401 22.5439 3.82401C23.0985 3.82401 23.5945 3.95735 24.0319 4.22401C24.4799 4.48001 24.8265 4.83202 25.0719 5.28001C25.4025 4.78935 25.7972 4.42668 26.2559 4.19201C26.7252 3.94668 27.2479 3.82401 27.8239 3.82401C28.6879 3.82401 29.3919 4.11201 29.9359 4.68801C30.4905 5.26401 30.7679 6.01068 30.7679 6.92802V12H29.5999V7.16802C29.5999 6.46401 29.4132 5.90401 29.0399 5.48802C28.6665 5.07202 28.1599 4.86402 27.5199 4.86402C27.0825 4.86402 26.6825 4.97602 26.3199 5.20002C25.9572 5.42402 25.6479 5.74935 25.3919 6.17601C25.4132 6.29335 25.4292 6.41601 25.4399 6.54401C25.4612 6.66135 25.4719 6.78935 25.4719 6.92802V12H24.3039V7.16802C24.3039 6.46401 24.1172 5.90401 23.7439 5.48802C23.3705 5.07202 22.8692 4.86402 22.2399 4.86402C21.8132 4.86402 21.4239 4.96535 21.0719 5.16802C20.7305 5.36002 20.4372 5.64802 20.1919 6.03201V12H19.0079Z" fill="white"/>
<path d="M37.6859 12.144C36.8112 12.144 36.0965 11.92 35.5419 11.472C34.9979 11.024 34.7259 10.4427 34.7259 9.72801C34.7259 8.98135 35.0139 8.38935 35.5899 7.95201C36.1659 7.50401 36.9445 7.28001 37.9259 7.28001C38.3525 7.28001 38.7632 7.32802 39.1579 7.42402C39.5632 7.52002 39.9365 7.65335 40.2779 7.82402V6.76801C40.2779 6.12801 40.0965 5.64801 39.7339 5.32801C39.3712 4.99735 38.8432 4.83202 38.1499 4.83202C37.7552 4.83202 37.3552 4.89068 36.9499 5.00802C36.5552 5.11468 36.1179 5.29068 35.6379 5.53602L35.1899 4.62401C35.7659 4.34668 36.2992 4.14401 36.7899 4.01602C37.2805 3.88801 37.7712 3.82401 38.2619 3.82401C39.2752 3.82401 40.0539 4.06401 40.5979 4.54401C41.1525 5.02401 41.4299 5.71201 41.4299 6.60802V12H40.2779V11.216C39.9152 11.5253 39.5152 11.76 39.0779 11.92C38.6512 12.0693 38.1872 12.144 37.6859 12.144ZM35.8619 9.69602C35.8619 10.144 36.0485 10.512 36.4219 10.8C36.8059 11.0773 37.2965 11.216 37.8939 11.216C38.3739 11.216 38.8112 11.1413 39.2059 10.992C39.6005 10.8427 39.9579 10.608 40.2779 10.288V8.78402C39.9472 8.56002 39.5899 8.40002 39.2059 8.30402C38.8325 8.19735 38.4165 8.14402 37.9579 8.14402C37.3179 8.14402 36.8059 8.28802 36.4219 8.57602C36.0485 8.85335 35.8619 9.22668 35.8619 9.69602Z" fill="white"/>
<path d="M45.8079 12V0.800014L46.9919 0.528015V7.60002L51.1839 3.98401H52.6239L48.2239 7.79202L52.8319 12H51.2159L46.9919 8.16002V12H45.8079Z" fill="white"/>
<path d="M62.288 11.152C61.84 11.4827 61.3706 11.7333 60.88 11.904C60.4 12.064 59.872 12.144 59.296 12.144C58.72 12.144 58.176 12.0373 57.664 11.824C57.1626 11.6107 56.7253 11.3173 56.352 10.944C55.9893 10.5707 55.7013 10.1333 55.488 9.63202C55.2746 9.12002 55.168 8.57068 55.168 7.98401C55.168 7.40802 55.2693 6.86935 55.472 6.36801C55.6853 5.86668 55.968 5.42935 56.32 5.05602C56.672 4.68268 57.088 4.38935 57.568 4.17601C58.0586 3.96268 58.576 3.85602 59.12 3.85602C59.6533 3.85602 60.1493 3.96268 60.608 4.17601C61.0773 4.38935 61.4773 4.68268 61.808 5.05602C62.1493 5.42935 62.416 5.86668 62.608 6.36801C62.8106 6.86935 62.912 7.40802 62.912 7.98401V8.35202H56.336C56.4213 9.14135 56.7466 9.79735 57.312 10.32C57.8773 10.8427 58.5546 11.104 59.344 11.104C59.76 11.104 60.1653 11.04 60.56 10.912C60.9546 10.784 61.2853 10.6027 61.552 10.368L62.288 11.152ZM59.088 4.89601C58.3946 4.89601 57.792 5.13068 57.28 5.60002C56.7786 6.06935 56.4746 6.67202 56.368 7.40802H61.728C61.6213 6.70402 61.3173 6.11201 60.816 5.63201C60.3253 5.14135 59.7493 4.89601 59.088 4.89601Z" fill="white"/>
<path d="M68.1032 3.98401V8.81602C68.1032 9.52002 68.3059 10.08 68.7112 10.496C69.1166 10.912 69.6606 11.12 70.3432 11.12C70.8232 11.12 71.2499 11.0133 71.6232 10.8C72.0072 10.576 72.3166 10.2667 72.5512 9.87201V3.98401H73.7352V12H72.5512V11.072C72.2419 11.4347 71.8739 11.7067 71.4472 11.888C71.0312 12.0693 70.5619 12.16 70.0392 12.16C69.1219 12.16 68.3752 11.872 67.7992 11.296C67.2232 10.72 66.9352 9.97335 66.9352 9.05602V3.98401H68.1032Z" fill="white"/>
<path d="M78.1485 15.28V3.98401H79.3165V4.84801C79.6578 4.51735 80.0471 4.27201 80.4845 4.11201C80.9325 3.94135 81.4071 3.85602 81.9085 3.85602C82.4738 3.85602 83.0018 3.96268 83.4925 4.17601C83.9831 4.38935 84.4098 4.68268 84.7725 5.05602C85.1352 5.41868 85.4178 5.85602 85.6205 6.36801C85.8338 6.86935 85.9405 7.40802 85.9405 7.98401C85.9405 8.56002 85.8338 9.10402 85.6205 9.61602C85.4178 10.128 85.1352 10.5707 84.7725 10.944C84.4098 11.3067 83.9778 11.5947 83.4765 11.808C82.9858 12.0213 82.4578 12.128 81.8925 12.128C81.4231 12.128 80.9698 12.048 80.5325 11.888C80.0951 11.728 79.6951 11.4987 79.3325 11.2V15.28H78.1485ZM81.7965 4.89601C81.2951 4.89601 80.8258 4.99735 80.3885 5.20002C79.9618 5.39202 79.6098 5.66402 79.3325 6.01602V9.98402C79.6098 10.3253 79.9671 10.5973 80.4045 10.8C80.8418 10.992 81.3058 11.088 81.7965 11.088C82.6391 11.088 83.3431 10.7947 83.9085 10.208C84.4845 9.61068 84.7725 8.87468 84.7725 8.00002C84.7725 7.56268 84.6925 7.15735 84.5325 6.78402C84.3831 6.40002 84.1751 6.06935 83.9085 5.79202C83.6418 5.51468 83.3271 5.29601 82.9645 5.13601C82.6018 4.97601 82.2125 4.89601 81.7965 4.89601Z" fill="white"/>
<path d="M103.615 7.98401C103.615 8.56002 103.509 9.10402 103.295 9.61602C103.093 10.128 102.81 10.5707 102.447 10.944C102.085 11.3067 101.653 11.5947 101.151 11.808C100.661 12.0213 100.133 12.128 99.5675 12.128C99.0981 12.128 98.6395 12.048 98.1915 11.888C97.7541 11.728 97.3542 11.4987 96.9915 11.2V12H95.8235V0.800014L97.0075 0.528015V4.83202C97.3382 4.51202 97.7222 4.27201 98.1595 4.11201C98.6075 3.94135 99.0821 3.85602 99.5835 3.85602C100.149 3.85602 100.677 3.96268 101.167 4.17601C101.658 4.38935 102.085 4.68268 102.447 5.05602C102.81 5.41868 103.093 5.85602 103.295 6.36801C103.509 6.86935 103.615 7.40802 103.615 7.98401ZM99.4715 4.89601C98.9701 4.89601 98.5008 4.99735 98.0635 5.20002C97.6368 5.39202 97.2848 5.66402 97.0075 6.01602V9.98402C97.2848 10.3253 97.6421 10.5973 98.0795 10.8C98.5168 10.992 98.9808 11.088 99.4715 11.088C100.314 11.088 101.018 10.7947 101.583 10.208C102.159 9.61068 102.447 8.87468 102.447 8.00002C102.447 7.56268 102.367 7.15735 102.207 6.78402C102.058 6.40002 101.85 6.06935 101.583 5.79202C101.317 5.51468 101.002 5.29601 100.639 5.13601C100.277 4.97601 99.8875 4.89601 99.4715 4.89601Z" fill="white"/>
<path d="M109.22 13.04L109.684 11.984L106.42 3.98401H107.732L110.324 10.56L113.124 3.98401H114.404L110.42 13.2C110.079 13.968 109.7 14.5227 109.284 14.864C108.868 15.2053 108.34 15.376 107.7 15.376C107.551 15.376 107.407 15.3653 107.268 15.344C107.14 15.3333 107.034 15.3173 106.948 15.296V14.224C107.055 14.2453 107.156 14.2613 107.252 14.272C107.359 14.2827 107.482 14.288 107.62 14.288C107.983 14.288 108.292 14.1867 108.548 13.984C108.804 13.7813 109.028 13.4667 109.22 13.04Z" fill="white"/>
</svg>
