<svg width="608" height="286" viewBox="0 0 608 286" fill="none" xmlns="http://www.w3.org/2000/svg">
<path d="M81.8849 286C52.6347 286 30.9708 277.706 16.8932 261.119C11.8878 255.173 7.82091 247.271 4.69255 237.412C1.56418 227.554 0 215.583 0 201.5C0 187.416 2.26806 174.82 6.80419 163.709C11.4967 152.443 17.8317 143.758 25.809 137.655C41.2944 126.232 59.9864 120.52 81.8849 120.52C88.9238 120.52 95.8062 121.068 102.532 122.163C109.258 123.102 114.263 124.119 117.548 125.215L122.475 126.858L121.772 129.205C109.571 124.98 96.2754 122.867 81.8849 122.867C65.3046 122.867 51.4616 128.266 40.3559 139.063C31.9093 147.044 25.9654 158.78 22.5242 174.272C20.4908 183.035 19.4741 193.754 19.4741 206.429C19.4741 219.104 21.2729 230.84 24.8705 241.637C28.4681 252.278 32.535 260.18 37.0711 265.344C41.7637 270.508 47.3947 274.655 53.9643 277.785C60.5338 280.758 65.7739 282.479 69.6843 282.949C73.5948 283.418 78.2091 283.653 83.5273 283.653C89.002 283.653 96.2754 283.027 105.348 281.775V233.422H76.9578V231.075H134.911V233.422H124.822V279.662C112.934 283.887 98.6217 286 81.8849 286Z" fill="black"/>
<path d="M166.972 285.061C160.559 285.061 155.632 283.653 152.191 280.836C148.906 278.019 147.185 275.203 147.029 272.386L146.794 268.396V167.7H163.218V268.396C163.218 272.934 164.078 276.455 165.799 278.958C167.676 281.306 169.475 282.557 171.195 282.714L174.011 283.183H181.284V285.061H166.972ZM148.202 141.411C146.325 139.533 145.386 137.186 145.386 134.369C145.386 131.552 146.325 129.205 148.202 127.327C150.079 125.293 152.425 124.276 155.241 124.276C158.056 124.276 160.403 125.293 162.28 127.327C164.313 129.205 165.33 131.552 165.33 134.369C165.33 137.186 164.313 139.533 162.28 141.411C160.403 143.288 158.056 144.227 155.241 144.227C152.425 144.227 150.079 143.288 148.202 141.411Z" fill="black"/>
<path d="M200.093 169.577V167.7H281.509V169.577L210.651 283.183H266.727C277.52 283.183 284.011 280.054 286.201 273.794L287.609 274.499C287.609 275.124 287.062 276.22 285.967 277.785C284.872 279.193 283.62 280.367 282.213 281.306C278.459 283.809 273.297 285.061 266.727 285.061H194.227V283.183L265.085 169.577H200.093Z" fill="black"/>
<path d="M311.832 227.789C311.832 247.192 315.195 261.432 321.921 270.508C328.804 279.584 337.798 284.122 348.904 284.122C364.545 284.122 378.467 281.775 390.667 277.081L391.371 278.724C378.858 283.574 364.702 286 348.904 286C333.262 286 320.514 281.306 310.659 271.917C300.805 262.528 295.878 248.053 295.878 228.493C295.878 208.933 301.04 193.754 311.363 182.957C321.687 172.159 334.826 166.761 350.781 166.761C363.607 166.761 374.4 170.594 383.159 178.262C391.919 185.93 396.298 197.275 396.298 212.297C396.298 213.079 396.298 213.862 396.298 214.644H312.536C312.067 218.869 311.832 223.251 311.832 227.789ZM380.344 212.766C380.187 197.744 377.294 186.634 371.662 179.436C366.031 172.238 358.758 168.638 349.842 168.638C340.926 168.638 332.949 172.551 325.91 180.375C319.028 188.199 314.648 198.996 312.771 212.766H380.344Z" fill="black"/>
<path d="M438.068 285.061C424.303 285.061 415.622 281.462 412.024 274.264C411.242 272.699 410.851 271.291 410.851 270.039V109.254H427.275V268.396C427.275 272.934 428.135 276.455 429.856 278.958C431.733 281.306 433.61 282.557 435.487 282.714L438.068 283.183H445.341V285.061H438.068Z" fill="black"/>
<path d="M488.137 285.061C474.372 285.061 465.691 281.462 462.093 274.264C461.311 272.699 460.92 271.291 460.92 270.039V109.254H477.344V268.396C477.344 272.934 478.204 276.455 479.925 278.958C481.802 281.306 483.679 282.557 485.556 282.714L488.137 283.183H495.41V285.061H488.137Z" fill="black"/>
<path d="M600.727 285.061C590.09 285.061 582.817 283.027 578.906 278.958C575.309 275.516 573.51 272.543 573.51 270.039V265.11C565.845 279.037 553.566 286 536.673 286C516.965 286 505.781 277.081 503.122 259.242C502.809 257.364 502.652 255.486 502.652 253.608C502.652 251.574 502.965 249.383 503.591 247.036C504.216 244.689 506.015 242.107 508.987 239.29C514.931 233.657 527.992 230.214 548.17 228.962C553.175 228.493 557.79 228.258 562.013 228.258C566.236 228.258 570.069 228.415 573.51 228.728V189.764C573.197 189.607 573.197 188.903 573.51 187.651C573.823 186.243 573.51 184.521 572.571 182.487C571.789 180.296 570.694 178.184 569.286 176.15C567.879 174.115 565.376 172.394 561.778 170.986C558.181 169.421 553.488 168.638 547.701 168.638C541.913 168.638 535.109 169.734 527.288 171.925C519.624 173.959 513.993 175.993 510.395 178.027L509.457 176.384C523.378 169.969 537.534 166.761 551.924 166.761C568.035 166.761 578.672 169.656 583.833 175.445C587.9 179.983 589.934 184.756 589.934 189.764V268.396C589.934 272.934 590.794 276.455 592.515 278.958C594.392 281.306 596.269 282.557 598.146 282.714L600.727 283.183H608V285.061H600.727ZM540.427 284.122C548.717 284.122 556.147 281.306 562.717 275.672C569.443 269.882 573.041 264.327 573.51 259.007V230.605C569.286 230.292 564.985 230.136 560.605 230.136C556.382 230.136 552.159 230.371 547.935 230.84C536.048 232.248 528.305 234.909 524.707 238.821C521.11 242.733 519.311 248.131 519.311 255.017C519.311 256.268 519.389 257.677 519.545 259.242C520.953 275.829 527.914 284.122 540.427 284.122Z" fill="black"/>
<path d="M17.623 60.3976V0.934419H60.1643V6.71084H24.1613V27.9477H47.767V33.6392H24.1613V60.3976H17.623Z" fill="black"/>
<path d="M93.9954 60.3976L118.62 0.934419H126.517L150.972 60.3976H143.839L136.367 41.7092H108.346L100.788 60.3976H93.9954ZM110.638 36.1026H134.074L122.356 6.96569L110.638 36.1026Z" fill="black"/>
<path d="M224.468 61.332C220.166 61.332 216.147 60.5675 212.411 59.0384C208.675 57.4528 205.391 55.2724 202.561 52.4975C199.731 49.6659 197.523 46.4096 195.938 42.7285C194.409 38.9909 193.645 34.97 193.645 30.666C193.645 26.362 194.409 22.3695 195.938 18.6884C197.523 14.9507 199.731 11.6944 202.561 8.91948C205.391 6.0879 208.675 3.90758 212.411 2.37853C216.147 0.792842 220.166 0 224.468 0C227.582 0 230.554 0.396421 233.384 1.18926C236.271 1.92547 238.932 3.02979 241.366 4.50221C243.857 5.918 246.065 7.67358 247.989 9.76895L243.659 14.3561C241.338 11.6944 238.479 9.65569 235.083 8.2399C231.686 6.76747 228.148 6.03126 224.468 6.03126C221.015 6.03126 217.817 6.65421 214.873 7.90011C211.93 9.146 209.354 10.9016 207.146 13.1668C204.995 15.3755 203.297 17.9805 202.051 20.982C200.863 23.9268 200.268 27.1549 200.268 30.666C200.268 34.1205 200.863 37.3485 202.051 40.35C203.297 43.3515 205.023 45.9849 207.231 48.2501C209.439 50.4588 212.015 52.186 214.958 53.4319C217.958 54.6778 221.185 55.3008 224.638 55.3008C228.318 55.3008 231.828 54.5929 235.167 53.1771C238.507 51.7046 241.309 49.6942 243.574 47.1458L247.819 51.5631C245.838 53.6018 243.602 55.3574 241.111 56.8298C238.677 58.3022 236.045 59.4349 233.214 60.2277C230.384 60.9639 227.469 61.332 224.468 61.332Z" fill="black"/>
<path d="M299.334 60.3976V0.934419H341.876V6.71084H305.873V27.523H329.393V33.2144H305.873V54.6212H342.215V60.3976H299.334Z" fill="black"/>
<path d="M453.116 60.3976V0.934419H477.231C481.08 0.934419 484.392 1.55737 487.166 2.80326C489.996 4.04916 492.176 5.83306 493.704 8.15495C495.233 10.4202 495.997 13.1102 495.997 16.225C495.997 19.2831 495.176 21.9447 493.534 24.21C491.949 26.4753 489.742 28.2025 486.911 29.3918C490.477 30.4678 493.28 32.2517 495.318 34.7435C497.412 37.2353 498.459 40.2084 498.459 43.663C498.459 47.0609 497.61 50.034 495.912 52.5824C494.27 55.0742 491.921 56.9997 488.864 58.3589C485.864 59.718 482.326 60.3976 478.25 60.3976H453.116ZM459.654 26.8434H476.891C480.741 26.8434 483.798 25.9373 486.062 24.1251C488.383 22.3128 489.543 19.8494 489.543 16.7346C489.543 13.6199 488.383 11.1564 486.062 9.34421C483.798 7.532 480.741 6.6259 476.891 6.6259H459.654V26.8434ZM459.654 54.7061H477.741C482.043 54.7061 485.468 53.6868 488.015 51.648C490.562 49.6093 491.836 46.891 491.836 43.4931C491.836 40.0952 490.562 37.3769 488.015 35.3381C485.468 33.2994 482.043 32.28 477.741 32.28H459.654V54.7061Z" fill="black"/>
<path d="M564.038 60.3976V36.1876L540.432 0.934419H548.074L567.519 30.4112L586.879 0.934419H594.267L570.576 36.4424V60.3976H564.038Z" fill="black"/>
</svg>
