<svg width="292" height="129" viewBox="0 0 292 129" fill="none" xmlns="http://www.w3.org/2000/svg">
<path d="M39.3263 129C25.2785 129 14.8741 125.017 8.11317 117.052C5.70927 114.197 3.7561 110.402 2.25366 105.668C0.751219 100.934 0 95.1854 0 88.4225C0 81.6596 1.08927 75.6105 3.2678 70.2753C5.52146 64.865 8.5639 60.6945 12.3951 57.7639C19.8322 52.2784 28.8092 49.5357 39.3263 49.5357C42.7068 49.5357 46.0122 49.7987 49.2424 50.3247C52.4727 50.7756 54.8765 51.264 56.4541 51.79L58.8205 52.579L58.4824 53.7062C52.6229 51.6773 46.2375 50.6628 39.3263 50.6628C31.3634 50.6628 24.7151 53.2553 19.3815 58.4402C15.3249 62.2725 12.4702 67.9083 10.8176 75.3475C9.84097 79.5555 9.35268 84.7029 9.35268 90.7895C9.35268 96.8761 10.2166 102.512 11.9444 107.697C13.6722 112.807 15.6254 116.601 17.8039 119.081C20.0575 121.561 22.7619 123.552 25.9171 125.055C29.0722 126.483 31.5888 127.309 33.4668 127.535C35.3449 127.76 37.561 127.873 40.1151 127.873C42.7444 127.873 46.2375 127.572 50.5946 126.971V103.752H36.96V102.625H64.7926V103.752H59.9473V125.957C54.238 127.986 47.3644 129 39.3263 129Z" fill="black"/>
<path d="M80.1906 128.549C77.1106 128.549 74.7442 127.873 73.0916 126.52C71.514 125.168 70.6877 123.815 70.6125 122.463L70.4998 120.546V72.1915H78.3876V120.546C78.3876 122.726 78.8008 124.416 79.6272 125.619C80.5286 126.746 81.3925 127.347 82.2189 127.422L83.5711 127.647H87.0642V128.549H80.1906ZM71.1759 59.5674C70.2745 58.6656 69.8238 57.5385 69.8238 56.1859C69.8238 54.8333 70.2745 53.7062 71.1759 52.8044C72.0774 51.8276 73.2042 51.3391 74.5564 51.3391C75.9086 51.3391 77.0355 51.8276 77.9369 52.8044C78.9135 53.7062 79.4018 54.8333 79.4018 56.1859C79.4018 57.5385 78.9135 58.6656 77.9369 59.5674C77.0355 60.4691 75.9086 60.9199 74.5564 60.9199C73.2042 60.9199 72.0774 60.4691 71.1759 59.5674Z" fill="black"/>
<path d="M96.0973 73.0932V72.1915H135.198V73.0932L101.168 127.647H128.099C133.283 127.647 136.4 126.145 137.452 123.139L138.128 123.477C138.128 123.778 137.865 124.304 137.339 125.055C136.813 125.731 136.212 126.295 135.536 126.746C133.733 127.948 131.254 128.549 128.099 128.549H93.2803V127.647L127.31 73.0932H96.0973Z" fill="black"/>
<path d="M149.762 101.047C149.762 110.364 151.377 117.202 154.607 121.561C157.912 125.919 162.232 128.098 167.566 128.098C175.078 128.098 181.764 126.971 187.623 124.717L187.961 125.506C181.951 127.835 175.153 129 167.566 129C160.053 129 153.931 126.746 149.198 122.237C144.466 117.728 142.099 110.778 142.099 101.385C142.099 91.9918 144.578 84.7029 149.536 79.518C154.494 74.3331 160.805 71.7406 168.467 71.7406C174.627 71.7406 179.81 73.5816 184.017 77.2637C188.224 80.9457 190.327 86.3936 190.327 93.6074C190.327 93.9831 190.327 94.3588 190.327 94.7345H150.1C149.874 96.7634 149.762 98.8674 149.762 101.047ZM182.665 93.8328C182.59 86.619 181.2 81.2839 178.496 77.8272C175.791 74.3706 172.298 72.6423 168.016 72.6423C163.734 72.6423 159.903 74.5209 156.523 78.2781C153.217 82.0353 151.114 87.2202 150.212 93.8328H182.665Z" fill="black"/>
<path d="M210.388 128.549C203.777 128.549 199.608 126.821 197.88 123.364C197.504 122.613 197.316 121.937 197.316 121.335V44.1254H205.204V120.546C205.204 122.726 205.617 124.416 206.444 125.619C207.345 126.746 208.247 127.347 209.148 127.422L210.388 127.647H213.881V128.549H210.388Z" fill="black"/>
<path d="M234.434 128.549C227.823 128.549 223.654 126.821 221.926 123.364C221.551 122.613 221.363 121.937 221.363 121.335V44.1254H229.251V120.546C229.251 122.726 229.664 124.416 230.49 125.619C231.392 126.746 232.293 127.347 233.194 127.422L234.434 127.647H237.927V128.549H234.434Z" fill="black"/>
<path d="M288.507 128.549C283.399 128.549 279.905 127.572 278.027 125.619C276.3 123.965 275.436 122.538 275.436 121.335V118.968C271.755 125.656 265.858 129 257.744 129C248.279 129 242.908 124.717 241.631 116.15C241.481 115.249 241.405 114.347 241.405 113.445C241.405 112.468 241.556 111.416 241.856 110.289C242.157 109.162 243.021 107.922 244.448 106.57C247.302 103.864 253.575 102.211 263.266 101.61C265.67 101.385 267.886 101.272 269.914 101.272C271.942 101.272 273.783 101.347 275.436 101.497V82.7867C275.285 82.7116 275.285 82.3734 275.436 81.7723C275.586 81.096 275.436 80.2694 274.985 79.2925C274.609 78.2405 274.083 77.2261 273.407 76.2492C272.731 75.2724 271.529 74.4458 269.801 73.7695C268.074 73.0181 265.82 72.6423 263.041 72.6423C260.261 72.6423 256.993 73.1683 253.237 74.2204C249.556 75.1972 246.852 76.1741 245.124 77.151L244.673 76.3619C251.359 73.2811 258.158 71.7406 265.069 71.7406C272.806 71.7406 277.915 73.1308 280.394 75.9111C282.347 78.0902 283.323 80.3821 283.323 82.7867V120.546C283.323 122.726 283.737 124.416 284.563 125.619C285.464 126.746 286.366 127.347 287.267 127.422L288.507 127.647H292V128.549H288.507ZM259.547 128.098C263.529 128.098 267.097 126.746 270.252 124.041C273.482 121.26 275.21 118.593 275.436 116.038V102.399C273.407 102.249 271.341 102.174 269.238 102.174C267.21 102.174 265.181 102.286 263.153 102.512C257.444 103.188 253.725 104.466 251.998 106.344C250.27 108.223 249.406 110.815 249.406 114.122C249.406 114.723 249.443 115.399 249.519 116.15C250.195 124.116 253.538 128.098 259.547 128.098Z" fill="black"/>
<path d="M18.1118 19.4121V0H20.1079L27.3438 15.2801L34.5519 0H36.548V19.4121H35.2727V1.22019L27.3438 18.0255L19.3871 1.27565V19.4121H18.1118Z" fill="black"/>
<path d="M52.6569 19.4121L60.7522 0H62.3324L70.4 19.4121H69.0138L66.3246 12.8397H56.7045L53.9876 19.4121H52.6569ZM57.1758 11.7027H65.8533L61.5284 1.19246L57.1758 11.7027Z" fill="black"/>
<path d="M86.4872 19.4121V0H87.7625V9.45646L98.5192 0H100.321L89.2596 9.67831L100.488 19.4121H98.547L87.7625 10.0111V19.4121H86.4872Z" fill="black"/>
<path d="M116.154 19.4121V0H129.572V1.19246H117.429V9.01275H125.358V10.2052H117.429V18.2196H129.683V19.4121H116.154Z" fill="black"/>
<path d="M153.735 19.7171C152.201 19.7171 150.851 19.3936 149.687 18.7465C148.523 18.081 147.617 17.1196 146.97 15.8624C146.323 14.6053 146 13.08 146 11.2867V0H147.275V11.2867C147.275 12.8212 147.552 14.1338 148.107 15.2246C148.661 16.2969 149.419 17.1196 150.38 17.6927C151.36 18.2474 152.478 18.5247 153.735 18.5247C154.991 18.5247 156.1 18.2474 157.061 17.6927C158.041 17.1196 158.808 16.2969 159.362 15.2246C159.917 14.1338 160.194 12.8212 160.194 11.2867V0H161.469V11.2867C161.469 13.08 161.146 14.6053 160.499 15.8624C159.852 17.1196 158.947 18.081 157.782 18.7465C156.618 19.3936 155.269 19.7171 153.735 19.7171Z" fill="black"/>
<path d="M179.25 19.4121V0H187.095C188.371 0 189.47 0.221852 190.394 0.665557C191.319 1.10926 192.021 1.73784 192.501 2.5513C193 3.34627 193.25 4.28915 193.25 5.37992C193.25 6.47069 193 7.43206 192.501 8.264C192.021 9.07746 191.319 9.71529 190.394 10.1775C189.47 10.6212 188.371 10.843 187.095 10.843H180.525V19.4121H179.25ZM180.525 9.65058H187.04C188.629 9.65058 189.84 9.26234 190.672 8.48585C191.522 7.70937 191.947 6.67406 191.947 5.37992C191.947 4.12276 191.522 3.11518 190.672 2.35718C189.84 1.5807 188.629 1.19246 187.04 1.19246H180.525V9.65058Z" fill="black"/>
<path d="M230.027 19.4121V0H237.318C238.575 0 239.647 0.203365 240.534 0.610094C241.421 0.998337 242.096 1.55297 242.558 2.27399C243.02 2.99501 243.251 3.84544 243.251 4.82529C243.251 5.89758 242.946 6.82196 242.336 7.59844C241.745 8.37493 240.904 8.92032 239.813 9.23461C241.181 9.53041 242.235 10.0943 242.974 10.9262C243.732 11.7582 244.111 12.8027 244.111 14.0599C244.111 15.1137 243.852 16.0473 243.334 16.8608C242.817 17.6558 242.078 18.2843 241.116 18.7465C240.155 19.1902 238.991 19.4121 237.623 19.4121H230.027ZM231.302 8.67998H237.291C238.751 8.67998 239.897 8.33795 240.728 7.65391C241.579 6.95138 242.004 6.04548 242.004 4.93622C242.004 3.82695 241.579 2.9303 240.728 2.24626C239.897 1.54372 238.751 1.19246 237.291 1.19246H231.302V8.67998ZM231.302 18.2196H237.512C239.139 18.2196 240.423 17.8314 241.366 17.0549C242.327 16.2784 242.808 15.2708 242.808 14.0322C242.808 12.7935 242.327 11.7952 241.366 11.0372C240.423 10.2607 239.139 9.87243 237.512 9.87243H231.302V18.2196Z" fill="black"/>
<path d="M265.345 19.4121V11.3145L257.749 0H259.274L266.01 10.1497L272.775 0H274.244L266.62 11.3699V19.4121H265.345Z" fill="black"/>
</svg>
